<mxfile host="Electron" agent="Mozilla/5.0 (Windows NT 10.0; Win64; x64) AppleWebKit/537.36 (KHTML, like Gecko) draw.io/27.0.2 Chrome/134.0.6998.205 Electron/35.3.0 Safari/537.36" version="27.0.2">
  <diagram name="Page-1" id="5MSibJJpTpZ0cKBTIOlg">
    <mxGraphModel dx="2977" dy="3055" grid="1" gridSize="10" guides="1" tooltips="1" connect="1" arrows="1" fold="1" page="1" pageScale="1" pageWidth="827" pageHeight="1169" math="0" shadow="0">
      <root>
        <mxCell id="0" />
        <mxCell id="1" parent="0" />
        <mxCell id="qIcLyR5SLVoyqpAv3vRJ-43" value="" style="rounded=1;whiteSpace=wrap;html=1;sketch=1;hachureGap=4;jiggle=2;curveFitting=1;fontFamily=Architects Daughter;fontSource=https%3A%2F%2Ffonts.googleapis.com%2Fcss%3Ffamily%3DArchitects%2BDaughter;fontSize=11;labelBackgroundColor=default;fillColor=#dae8fc;strokeColor=#6c8ebf;arcSize=33;" parent="1" vertex="1">
          <mxGeometry x="430" y="-195" width="1440" height="1125" as="geometry" />
        </mxCell>
        <mxCell id="e1PeDzwuXJfq-AHpMB3j-1" value="&lt;font&gt;Client&lt;/font&gt;" style="rounded=1;whiteSpace=wrap;html=1;fontStyle=1;sketch=1;curveFitting=1;jiggle=2;fontFamily=Comic Sans MS;" parent="1" vertex="1">
          <mxGeometry x="130" y="270" width="70" height="60" as="geometry" />
        </mxCell>
        <mxCell id="qIcLyR5SLVoyqpAv3vRJ-31" style="edgeStyle=none;shape=connector;rounded=0;sketch=1;hachureGap=4;jiggle=2;curveFitting=1;orthogonalLoop=1;jettySize=auto;html=1;entryX=0;entryY=0.5;entryDx=0;entryDy=0;strokeColor=default;align=center;verticalAlign=middle;fontFamily=Architects Daughter;fontSource=https%3A%2F%2Ffonts.googleapis.com%2Fcss%3Ffamily%3DArchitects%2BDaughter;fontSize=11;fontColor=default;labelBackgroundColor=default;startArrow=classic;startFill=1;endArrow=classic;exitX=1.043;exitY=0.073;exitDx=0;exitDy=0;exitPerimeter=0;" parent="1" source="e1PeDzwuXJfq-AHpMB3j-2" target="qIcLyR5SLVoyqpAv3vRJ-2" edge="1">
          <mxGeometry relative="1" as="geometry" />
        </mxCell>
        <mxCell id="qIcLyR5SLVoyqpAv3vRJ-32" style="edgeStyle=none;shape=connector;rounded=0;sketch=1;hachureGap=4;jiggle=2;curveFitting=1;orthogonalLoop=1;jettySize=auto;html=1;entryX=0;entryY=0.5;entryDx=0;entryDy=0;strokeColor=default;align=center;verticalAlign=middle;fontFamily=Architects Daughter;fontSource=https%3A%2F%2Ffonts.googleapis.com%2Fcss%3Ffamily%3DArchitects%2BDaughter;fontSize=11;fontColor=default;labelBackgroundColor=default;startArrow=classic;startFill=1;endArrow=classic;exitX=1.01;exitY=0.211;exitDx=0;exitDy=0;exitPerimeter=0;" parent="1" source="e1PeDzwuXJfq-AHpMB3j-2" target="qIcLyR5SLVoyqpAv3vRJ-3" edge="1">
          <mxGeometry relative="1" as="geometry" />
        </mxCell>
        <mxCell id="qIcLyR5SLVoyqpAv3vRJ-33" style="edgeStyle=none;shape=connector;rounded=0;sketch=1;hachureGap=4;jiggle=2;curveFitting=1;orthogonalLoop=1;jettySize=auto;html=1;strokeColor=default;align=center;verticalAlign=middle;fontFamily=Architects Daughter;fontSource=https%3A%2F%2Ffonts.googleapis.com%2Fcss%3Ffamily%3DArchitects%2BDaughter;fontSize=11;fontColor=default;labelBackgroundColor=default;startArrow=classic;startFill=1;endArrow=classic;entryX=0;entryY=0.5;entryDx=0;entryDy=0;exitX=1.027;exitY=0.352;exitDx=0;exitDy=0;exitPerimeter=0;" parent="1" source="e1PeDzwuXJfq-AHpMB3j-2" target="qIcLyR5SLVoyqpAv3vRJ-4" edge="1">
          <mxGeometry relative="1" as="geometry">
            <mxPoint x="880" y="120" as="targetPoint" />
          </mxGeometry>
        </mxCell>
        <mxCell id="qIcLyR5SLVoyqpAv3vRJ-34" style="edgeStyle=none;shape=connector;rounded=0;sketch=1;hachureGap=4;jiggle=2;curveFitting=1;orthogonalLoop=1;jettySize=auto;html=1;strokeColor=default;align=center;verticalAlign=middle;fontFamily=Architects Daughter;fontSource=https%3A%2F%2Ffonts.googleapis.com%2Fcss%3Ffamily%3DArchitects%2BDaughter;fontSize=11;fontColor=default;labelBackgroundColor=default;startArrow=classic;startFill=1;endArrow=classic;" parent="1" source="e1PeDzwuXJfq-AHpMB3j-2" target="qIcLyR5SLVoyqpAv3vRJ-5" edge="1">
          <mxGeometry relative="1" as="geometry" />
        </mxCell>
        <mxCell id="qIcLyR5SLVoyqpAv3vRJ-35" style="edgeStyle=none;shape=connector;rounded=0;sketch=1;hachureGap=4;jiggle=2;curveFitting=1;orthogonalLoop=1;jettySize=auto;html=1;entryX=0;entryY=0.5;entryDx=0;entryDy=0;strokeColor=default;align=center;verticalAlign=middle;fontFamily=Architects Daughter;fontSource=https%3A%2F%2Ffonts.googleapis.com%2Fcss%3Ffamily%3DArchitects%2BDaughter;fontSize=11;fontColor=default;labelBackgroundColor=default;startArrow=classic;startFill=1;endArrow=classic;exitX=1.043;exitY=0.615;exitDx=0;exitDy=0;exitPerimeter=0;" parent="1" source="e1PeDzwuXJfq-AHpMB3j-2" target="qIcLyR5SLVoyqpAv3vRJ-6" edge="1">
          <mxGeometry relative="1" as="geometry" />
        </mxCell>
        <mxCell id="qIcLyR5SLVoyqpAv3vRJ-36" style="edgeStyle=none;shape=connector;rounded=0;sketch=1;hachureGap=4;jiggle=2;curveFitting=1;orthogonalLoop=1;jettySize=auto;html=1;entryX=0;entryY=0.5;entryDx=0;entryDy=0;strokeColor=default;align=center;verticalAlign=middle;fontFamily=Architects Daughter;fontSource=https%3A%2F%2Ffonts.googleapis.com%2Fcss%3Ffamily%3DArchitects%2BDaughter;fontSize=11;fontColor=default;labelBackgroundColor=default;startArrow=classic;startFill=1;endArrow=classic;exitX=1;exitY=0.75;exitDx=0;exitDy=0;" parent="1" source="e1PeDzwuXJfq-AHpMB3j-2" target="qIcLyR5SLVoyqpAv3vRJ-7" edge="1">
          <mxGeometry relative="1" as="geometry" />
        </mxCell>
        <mxCell id="qIcLyR5SLVoyqpAv3vRJ-37" style="edgeStyle=none;shape=connector;rounded=0;sketch=1;hachureGap=4;jiggle=2;curveFitting=1;orthogonalLoop=1;jettySize=auto;html=1;entryX=0;entryY=0.5;entryDx=0;entryDy=0;strokeColor=default;align=center;verticalAlign=middle;fontFamily=Architects Daughter;fontSource=https%3A%2F%2Ffonts.googleapis.com%2Fcss%3Ffamily%3DArchitects%2BDaughter;fontSize=11;fontColor=default;labelBackgroundColor=default;startArrow=classic;startFill=1;endArrow=classic;exitX=0.978;exitY=0.843;exitDx=0;exitDy=0;exitPerimeter=0;" parent="1" source="e1PeDzwuXJfq-AHpMB3j-2" target="qIcLyR5SLVoyqpAv3vRJ-9" edge="1">
          <mxGeometry relative="1" as="geometry" />
        </mxCell>
        <mxCell id="qIcLyR5SLVoyqpAv3vRJ-38" style="edgeStyle=none;shape=connector;rounded=0;sketch=1;hachureGap=4;jiggle=2;curveFitting=1;orthogonalLoop=1;jettySize=auto;html=1;entryX=0;entryY=0.5;entryDx=0;entryDy=0;strokeColor=default;align=center;verticalAlign=middle;fontFamily=Architects Daughter;fontSource=https%3A%2F%2Ffonts.googleapis.com%2Fcss%3Ffamily%3DArchitects%2BDaughter;fontSize=11;fontColor=default;labelBackgroundColor=default;startArrow=classic;startFill=1;endArrow=classic;exitX=0.994;exitY=0.936;exitDx=0;exitDy=0;exitPerimeter=0;" parent="1" source="e1PeDzwuXJfq-AHpMB3j-2" target="qIcLyR5SLVoyqpAv3vRJ-10" edge="1">
          <mxGeometry relative="1" as="geometry" />
        </mxCell>
        <mxCell id="qIcLyR5SLVoyqpAv3vRJ-39" style="edgeStyle=none;shape=connector;rounded=0;sketch=1;hachureGap=4;jiggle=2;curveFitting=1;orthogonalLoop=1;jettySize=auto;html=1;entryX=0;entryY=0.5;entryDx=0;entryDy=0;strokeColor=default;align=center;verticalAlign=middle;fontFamily=Architects Daughter;fontSource=https%3A%2F%2Ffonts.googleapis.com%2Fcss%3Ffamily%3DArchitects%2BDaughter;fontSize=11;fontColor=default;labelBackgroundColor=default;startArrow=classic;startFill=1;endArrow=classic;exitX=1.027;exitY=0.984;exitDx=0;exitDy=0;exitPerimeter=0;" parent="1" source="e1PeDzwuXJfq-AHpMB3j-2" target="qIcLyR5SLVoyqpAv3vRJ-12" edge="1">
          <mxGeometry relative="1" as="geometry" />
        </mxCell>
        <mxCell id="e1PeDzwuXJfq-AHpMB3j-2" value="&lt;font face=&quot;Comic Sans MS&quot;&gt;Server&lt;/font&gt;" style="rounded=1;whiteSpace=wrap;html=1;fontStyle=1;sketch=1;curveFitting=1;jiggle=2;" parent="1" vertex="1">
          <mxGeometry x="470" y="10" width="70" height="690" as="geometry" />
        </mxCell>
        <mxCell id="e1PeDzwuXJfq-AHpMB3j-18" style="edgeStyle=none;shape=connector;rounded=0;sketch=1;jiggle=2;curveFitting=1;orthogonalLoop=1;jettySize=auto;html=1;entryX=0;entryY=0.1;entryDx=0;entryDy=0;entryPerimeter=0;strokeColor=default;align=center;verticalAlign=middle;fontFamily=Comic Sans MS;fontSize=12;fontColor=default;fontStyle=1;labelBackgroundColor=default;endArrow=classic;startArrow=classic;startFill=1;" parent="1" source="e1PeDzwuXJfq-AHpMB3j-1" target="e1PeDzwuXJfq-AHpMB3j-2" edge="1">
          <mxGeometry relative="1" as="geometry" />
        </mxCell>
        <mxCell id="e1PeDzwuXJfq-AHpMB3j-22" style="edgeStyle=none;shape=connector;rounded=0;sketch=1;jiggle=2;curveFitting=1;orthogonalLoop=1;jettySize=auto;html=1;entryX=0.03;entryY=0.34;entryDx=0;entryDy=0;entryPerimeter=0;strokeColor=default;align=center;verticalAlign=middle;fontFamily=Comic Sans MS;fontSize=12;fontColor=default;fontStyle=1;labelBackgroundColor=default;endArrow=classic;startArrow=classic;startFill=1;" parent="1" source="e1PeDzwuXJfq-AHpMB3j-1" target="e1PeDzwuXJfq-AHpMB3j-2" edge="1">
          <mxGeometry relative="1" as="geometry" />
        </mxCell>
        <mxCell id="e1PeDzwuXJfq-AHpMB3j-25" style="edgeStyle=none;shape=connector;rounded=0;sketch=1;jiggle=2;curveFitting=1;orthogonalLoop=1;jettySize=auto;html=1;entryX=0.03;entryY=0.536;entryDx=0;entryDy=0;entryPerimeter=0;strokeColor=default;align=center;verticalAlign=middle;fontFamily=Comic Sans MS;fontSize=12;fontColor=default;fontStyle=1;labelBackgroundColor=default;endArrow=classic;startArrow=classic;startFill=1;" parent="1" source="e1PeDzwuXJfq-AHpMB3j-1" target="e1PeDzwuXJfq-AHpMB3j-2" edge="1">
          <mxGeometry relative="1" as="geometry" />
        </mxCell>
        <mxCell id="e1PeDzwuXJfq-AHpMB3j-28" style="edgeStyle=none;shape=connector;rounded=0;sketch=1;jiggle=2;curveFitting=1;orthogonalLoop=1;jettySize=auto;html=1;entryX=0.006;entryY=0.731;entryDx=0;entryDy=0;entryPerimeter=0;strokeColor=default;align=center;verticalAlign=middle;fontFamily=Comic Sans MS;fontSize=12;fontColor=default;fontStyle=1;labelBackgroundColor=default;endArrow=classic;startArrow=classic;startFill=1;" parent="1" source="e1PeDzwuXJfq-AHpMB3j-1" target="e1PeDzwuXJfq-AHpMB3j-2" edge="1">
          <mxGeometry relative="1" as="geometry" />
        </mxCell>
        <mxCell id="e1PeDzwuXJfq-AHpMB3j-31" style="edgeStyle=none;shape=connector;rounded=0;sketch=1;jiggle=2;curveFitting=1;orthogonalLoop=1;jettySize=auto;html=1;entryX=0.017;entryY=0.902;entryDx=0;entryDy=0;entryPerimeter=0;strokeColor=default;align=center;verticalAlign=middle;fontFamily=Comic Sans MS;fontSize=12;fontColor=default;fontStyle=1;labelBackgroundColor=default;endArrow=classic;startArrow=classic;startFill=1;" parent="1" source="e1PeDzwuXJfq-AHpMB3j-1" target="e1PeDzwuXJfq-AHpMB3j-2" edge="1">
          <mxGeometry relative="1" as="geometry" />
        </mxCell>
        <mxCell id="meHOkytlMyBPV6zqSzX6-1" value="Object Store&lt;div&gt;(Amazon S3)&lt;/div&gt;" style="shape=cylinder3;whiteSpace=wrap;html=1;boundedLbl=1;backgroundOutline=1;size=15;rounded=1;sketch=1;jiggle=2;curveFitting=1;strokeColor=default;align=center;verticalAlign=middle;fontFamily=Comic Sans MS;fontSize=12;fontColor=default;fontStyle=1;fillColor=default;" parent="1" vertex="1">
          <mxGeometry x="1460" y="795" width="120" height="110" as="geometry" />
        </mxCell>
        <mxCell id="qIcLyR5SLVoyqpAv3vRJ-15" style="edgeStyle=none;shape=connector;rounded=0;sketch=1;hachureGap=4;jiggle=2;curveFitting=1;orthogonalLoop=1;jettySize=auto;html=1;entryX=0.5;entryY=0;entryDx=0;entryDy=0;strokeColor=default;align=center;verticalAlign=middle;fontFamily=Architects Daughter;fontSource=https%3A%2F%2Ffonts.googleapis.com%2Fcss%3Ffamily%3DArchitects%2BDaughter;fontSize=11;fontColor=default;labelBackgroundColor=default;startArrow=classic;startFill=1;endArrow=classic;exitX=1;exitY=0.438;exitDx=0;exitDy=0;exitPerimeter=0;" parent="1" source="qIcLyR5SLVoyqpAv3vRJ-2" target="qIcLyR5SLVoyqpAv3vRJ-13" edge="1">
          <mxGeometry relative="1" as="geometry">
            <mxPoint x="1100" y="-120" as="sourcePoint" />
          </mxGeometry>
        </mxCell>
        <mxCell id="qIcLyR5SLVoyqpAv3vRJ-2" value="&lt;font face=&quot;Comic Sans MS&quot;&gt;Auth Service&lt;/font&gt;" style="rounded=1;whiteSpace=wrap;html=1;fontStyle=1;sketch=1;curveFitting=1;jiggle=2;" parent="1" vertex="1">
          <mxGeometry x="910" y="-165" width="180" height="80" as="geometry" />
        </mxCell>
        <mxCell id="qIcLyR5SLVoyqpAv3vRJ-16" style="edgeStyle=none;shape=connector;rounded=0;sketch=1;hachureGap=4;jiggle=2;curveFitting=1;orthogonalLoop=1;jettySize=auto;html=1;strokeColor=default;align=center;verticalAlign=middle;fontFamily=Architects Daughter;fontSource=https%3A%2F%2Ffonts.googleapis.com%2Fcss%3Ffamily%3DArchitects%2BDaughter;fontSize=11;fontColor=default;labelBackgroundColor=default;startArrow=classic;startFill=1;endArrow=classic;exitX=1;exitY=0.5;exitDx=0;exitDy=0;" parent="1" source="qIcLyR5SLVoyqpAv3vRJ-3" target="qIcLyR5SLVoyqpAv3vRJ-13" edge="1">
          <mxGeometry relative="1" as="geometry" />
        </mxCell>
        <mxCell id="qRD__mXqtZjeVcOeW_DR-5" style="edgeStyle=none;shape=connector;rounded=0;sketch=1;jiggle=2;curveFitting=1;orthogonalLoop=1;jettySize=auto;html=1;strokeColor=default;align=center;verticalAlign=middle;fontFamily=Helvetica;fontSize=11;fontColor=default;labelBackgroundColor=default;startArrow=classic;startFill=1;endArrow=classic;exitX=1;exitY=0.5;exitDx=0;exitDy=0;" edge="1" parent="1" source="qIcLyR5SLVoyqpAv3vRJ-3" target="qRD__mXqtZjeVcOeW_DR-1">
          <mxGeometry relative="1" as="geometry" />
        </mxCell>
        <mxCell id="qIcLyR5SLVoyqpAv3vRJ-3" value="&lt;font face=&quot;Comic Sans MS&quot;&gt;Product Service&lt;/font&gt;" style="rounded=1;whiteSpace=wrap;html=1;fontStyle=1;sketch=1;curveFitting=1;jiggle=2;" parent="1" vertex="1">
          <mxGeometry x="910" y="-45" width="180" height="80" as="geometry" />
        </mxCell>
        <mxCell id="qIcLyR5SLVoyqpAv3vRJ-4" value="&lt;font face=&quot;Comic Sans MS&quot;&gt;Cart Service&lt;/font&gt;" style="rounded=1;whiteSpace=wrap;html=1;fontStyle=1;sketch=1;curveFitting=1;jiggle=2;" parent="1" vertex="1">
          <mxGeometry x="910" y="75" width="180" height="80" as="geometry" />
        </mxCell>
        <mxCell id="qIcLyR5SLVoyqpAv3vRJ-18" style="edgeStyle=none;shape=connector;rounded=0;sketch=1;hachureGap=4;jiggle=2;curveFitting=1;orthogonalLoop=1;jettySize=auto;html=1;entryX=0;entryY=0.5;entryDx=0;entryDy=0;strokeColor=default;align=center;verticalAlign=middle;fontFamily=Architects Daughter;fontSource=https%3A%2F%2Ffonts.googleapis.com%2Fcss%3Ffamily%3DArchitects%2BDaughter;fontSize=11;fontColor=default;labelBackgroundColor=default;startArrow=classic;startFill=1;endArrow=classic;" parent="1" source="qIcLyR5SLVoyqpAv3vRJ-5" target="qIcLyR5SLVoyqpAv3vRJ-13" edge="1">
          <mxGeometry relative="1" as="geometry" />
        </mxCell>
        <mxCell id="qIcLyR5SLVoyqpAv3vRJ-5" value="&lt;font face=&quot;Comic Sans MS&quot;&gt;Order Service&lt;/font&gt;" style="rounded=1;whiteSpace=wrap;html=1;fontStyle=1;sketch=1;curveFitting=1;jiggle=2;" parent="1" vertex="1">
          <mxGeometry x="910" y="195" width="180" height="80" as="geometry" />
        </mxCell>
        <mxCell id="qIcLyR5SLVoyqpAv3vRJ-19" style="edgeStyle=none;shape=connector;rounded=0;sketch=1;hachureGap=4;jiggle=2;curveFitting=1;orthogonalLoop=1;jettySize=auto;html=1;entryX=0;entryY=0.5;entryDx=0;entryDy=0;strokeColor=default;align=center;verticalAlign=middle;fontFamily=Architects Daughter;fontSource=https%3A%2F%2Ffonts.googleapis.com%2Fcss%3Ffamily%3DArchitects%2BDaughter;fontSize=11;fontColor=default;labelBackgroundColor=default;startArrow=classic;startFill=1;endArrow=classic;" parent="1" source="qIcLyR5SLVoyqpAv3vRJ-6" target="qIcLyR5SLVoyqpAv3vRJ-13" edge="1">
          <mxGeometry relative="1" as="geometry" />
        </mxCell>
        <mxCell id="qIcLyR5SLVoyqpAv3vRJ-6" value="&lt;font face=&quot;Comic Sans MS&quot;&gt;Invoice Service&lt;/font&gt;" style="rounded=1;whiteSpace=wrap;html=1;fontStyle=1;sketch=1;curveFitting=1;jiggle=2;" parent="1" vertex="1">
          <mxGeometry x="910" y="315" width="180" height="80" as="geometry" />
        </mxCell>
        <mxCell id="qIcLyR5SLVoyqpAv3vRJ-20" style="edgeStyle=none;shape=connector;rounded=0;sketch=1;hachureGap=4;jiggle=2;curveFitting=1;orthogonalLoop=1;jettySize=auto;html=1;entryX=0;entryY=0.5;entryDx=0;entryDy=0;strokeColor=default;align=center;verticalAlign=middle;fontFamily=Architects Daughter;fontSource=https%3A%2F%2Ffonts.googleapis.com%2Fcss%3Ffamily%3DArchitects%2BDaughter;fontSize=11;fontColor=default;labelBackgroundColor=default;startArrow=classic;startFill=1;endArrow=classic;" parent="1" source="qIcLyR5SLVoyqpAv3vRJ-7" target="qIcLyR5SLVoyqpAv3vRJ-13" edge="1">
          <mxGeometry relative="1" as="geometry" />
        </mxCell>
        <mxCell id="qIcLyR5SLVoyqpAv3vRJ-7" value="&lt;font face=&quot;Comic Sans MS&quot;&gt;Return Service&lt;/font&gt;" style="rounded=1;whiteSpace=wrap;html=1;fontStyle=1;sketch=1;curveFitting=1;jiggle=2;" parent="1" vertex="1">
          <mxGeometry x="910" y="435" width="180" height="80" as="geometry" />
        </mxCell>
        <mxCell id="qIcLyR5SLVoyqpAv3vRJ-21" style="edgeStyle=none;shape=connector;rounded=0;sketch=1;hachureGap=4;jiggle=2;curveFitting=1;orthogonalLoop=1;jettySize=auto;html=1;entryX=0;entryY=1;entryDx=0;entryDy=0;strokeColor=default;align=center;verticalAlign=middle;fontFamily=Architects Daughter;fontSource=https%3A%2F%2Ffonts.googleapis.com%2Fcss%3Ffamily%3DArchitects%2BDaughter;fontSize=11;fontColor=default;labelBackgroundColor=default;startArrow=classic;startFill=1;endArrow=classic;" parent="1" source="qIcLyR5SLVoyqpAv3vRJ-9" target="qIcLyR5SLVoyqpAv3vRJ-13" edge="1">
          <mxGeometry relative="1" as="geometry" />
        </mxCell>
        <mxCell id="qIcLyR5SLVoyqpAv3vRJ-9" value="&lt;font face=&quot;Comic Sans MS&quot;&gt;Dashboard Service&lt;/font&gt;" style="rounded=1;whiteSpace=wrap;html=1;fontStyle=1;sketch=1;curveFitting=1;jiggle=2;" parent="1" vertex="1">
          <mxGeometry x="910" y="555" width="180" height="80" as="geometry" />
        </mxCell>
        <mxCell id="qIcLyR5SLVoyqpAv3vRJ-22" style="edgeStyle=none;shape=connector;rounded=0;sketch=1;hachureGap=4;jiggle=2;curveFitting=1;orthogonalLoop=1;jettySize=auto;html=1;entryX=0.25;entryY=1;entryDx=0;entryDy=0;strokeColor=default;align=center;verticalAlign=middle;fontFamily=Architects Daughter;fontSource=https%3A%2F%2Ffonts.googleapis.com%2Fcss%3Ffamily%3DArchitects%2BDaughter;fontSize=11;fontColor=default;labelBackgroundColor=default;startArrow=classic;startFill=1;endArrow=classic;exitX=1;exitY=0.5;exitDx=0;exitDy=0;" parent="1" source="qIcLyR5SLVoyqpAv3vRJ-10" target="qIcLyR5SLVoyqpAv3vRJ-13" edge="1">
          <mxGeometry relative="1" as="geometry" />
        </mxCell>
        <mxCell id="qIcLyR5SLVoyqpAv3vRJ-10" value="&lt;span style=&quot;font-family: &amp;quot;Comic Sans MS&amp;quot;;&quot;&gt;Notification Service&lt;/span&gt;" style="rounded=1;whiteSpace=wrap;html=1;fontStyle=1;sketch=1;curveFitting=1;jiggle=2;" parent="1" vertex="1">
          <mxGeometry x="910" y="675" width="180" height="80" as="geometry" />
        </mxCell>
        <mxCell id="qIcLyR5SLVoyqpAv3vRJ-23" style="edgeStyle=none;shape=connector;rounded=0;sketch=1;hachureGap=4;jiggle=2;curveFitting=1;orthogonalLoop=1;jettySize=auto;html=1;entryX=0.5;entryY=1;entryDx=0;entryDy=0;strokeColor=default;align=center;verticalAlign=middle;fontFamily=Architects Daughter;fontSource=https%3A%2F%2Ffonts.googleapis.com%2Fcss%3Ffamily%3DArchitects%2BDaughter;fontSize=11;fontColor=default;labelBackgroundColor=default;startArrow=classic;startFill=1;endArrow=classic;exitX=1;exitY=0.5;exitDx=0;exitDy=0;" parent="1" source="qIcLyR5SLVoyqpAv3vRJ-12" target="qIcLyR5SLVoyqpAv3vRJ-13" edge="1">
          <mxGeometry relative="1" as="geometry" />
        </mxCell>
        <mxCell id="qIcLyR5SLVoyqpAv3vRJ-12" value="&lt;span style=&quot;font-family: &amp;quot;Comic Sans MS&amp;quot;;&quot;&gt;File Service&lt;/span&gt;" style="rounded=1;whiteSpace=wrap;html=1;fontStyle=1;sketch=1;curveFitting=1;jiggle=2;" parent="1" vertex="1">
          <mxGeometry x="910" y="795" width="180" height="80" as="geometry" />
        </mxCell>
        <mxCell id="qIcLyR5SLVoyqpAv3vRJ-13" value="&lt;font face=&quot;Comic Sans MS&quot;&gt;Unit of Work&lt;/font&gt;" style="rounded=1;whiteSpace=wrap;html=1;fontStyle=1;sketch=1;curveFitting=1;jiggle=2;" parent="1" vertex="1">
          <mxGeometry x="1280" y="315" width="180" height="80" as="geometry" />
        </mxCell>
        <mxCell id="qIcLyR5SLVoyqpAv3vRJ-17" style="edgeStyle=none;shape=connector;rounded=0;sketch=1;hachureGap=4;jiggle=2;curveFitting=1;orthogonalLoop=1;jettySize=auto;html=1;entryX=0.187;entryY=0.017;entryDx=0;entryDy=0;entryPerimeter=0;strokeColor=default;align=center;verticalAlign=middle;fontFamily=Architects Daughter;fontSource=https%3A%2F%2Ffonts.googleapis.com%2Fcss%3Ffamily%3DArchitects%2BDaughter;fontSize=11;fontColor=default;labelBackgroundColor=default;startArrow=classic;startFill=1;endArrow=classic;exitX=1;exitY=0.5;exitDx=0;exitDy=0;" parent="1" source="qIcLyR5SLVoyqpAv3vRJ-4" target="qIcLyR5SLVoyqpAv3vRJ-13" edge="1">
          <mxGeometry relative="1" as="geometry" />
        </mxCell>
        <mxCell id="qIcLyR5SLVoyqpAv3vRJ-26" value="&lt;font face=&quot;Comic Sans MS&quot;&gt;Repositories&lt;/font&gt;" style="rounded=1;whiteSpace=wrap;html=1;fontStyle=1;sketch=1;curveFitting=1;jiggle=2;" parent="1" vertex="1">
          <mxGeometry x="1590" y="300" width="180" height="80" as="geometry" />
        </mxCell>
        <mxCell id="qIcLyR5SLVoyqpAv3vRJ-27" value="&lt;font face=&quot;Comic Sans MS&quot;&gt;Repositories&lt;/font&gt;" style="rounded=1;whiteSpace=wrap;html=1;fontStyle=1;sketch=1;curveFitting=1;jiggle=2;" parent="1" vertex="1">
          <mxGeometry x="1600" y="310" width="180" height="80" as="geometry" />
        </mxCell>
        <mxCell id="qIcLyR5SLVoyqpAv3vRJ-28" value="&lt;font face=&quot;Comic Sans MS&quot;&gt;Repositories&lt;/font&gt;" style="rounded=1;whiteSpace=wrap;html=1;fontStyle=1;sketch=1;curveFitting=1;jiggle=2;" parent="1" vertex="1">
          <mxGeometry x="1610" y="320" width="180" height="80" as="geometry" />
        </mxCell>
        <mxCell id="qIcLyR5SLVoyqpAv3vRJ-29" value="&lt;font face=&quot;Comic Sans MS&quot;&gt;Repositories&lt;/font&gt;" style="rounded=1;whiteSpace=wrap;html=1;fontStyle=1;sketch=1;curveFitting=1;jiggle=2;" parent="1" vertex="1">
          <mxGeometry x="1620" y="330" width="180" height="80" as="geometry" />
        </mxCell>
        <mxCell id="qIcLyR5SLVoyqpAv3vRJ-30" style="edgeStyle=none;shape=connector;rounded=0;sketch=1;hachureGap=4;jiggle=2;curveFitting=1;orthogonalLoop=1;jettySize=auto;html=1;entryX=-0.004;entryY=0.678;entryDx=0;entryDy=0;entryPerimeter=0;strokeColor=default;align=center;verticalAlign=middle;fontFamily=Architects Daughter;fontSource=https%3A%2F%2Ffonts.googleapis.com%2Fcss%3Ffamily%3DArchitects%2BDaughter;fontSize=11;fontColor=default;labelBackgroundColor=default;startArrow=classic;startFill=1;endArrow=classic;" parent="1" source="qIcLyR5SLVoyqpAv3vRJ-13" target="qIcLyR5SLVoyqpAv3vRJ-26" edge="1">
          <mxGeometry relative="1" as="geometry" />
        </mxCell>
        <mxCell id="qIcLyR5SLVoyqpAv3vRJ-40" style="edgeStyle=none;shape=connector;rounded=0;sketch=1;hachureGap=4;jiggle=2;curveFitting=1;orthogonalLoop=1;jettySize=auto;html=1;entryX=0;entryY=0.5;entryDx=0;entryDy=0;entryPerimeter=0;strokeColor=default;align=center;verticalAlign=middle;fontFamily=Architects Daughter;fontSource=https%3A%2F%2Ffonts.googleapis.com%2Fcss%3Ffamily%3DArchitects%2BDaughter;fontSize=11;fontColor=default;labelBackgroundColor=default;startArrow=classic;startFill=1;endArrow=classic;" parent="1" source="qIcLyR5SLVoyqpAv3vRJ-12" target="meHOkytlMyBPV6zqSzX6-1" edge="1">
          <mxGeometry relative="1" as="geometry" />
        </mxCell>
        <mxCell id="qIcLyR5SLVoyqpAv3vRJ-42" value="&lt;font style=&quot;font-size: 22px;&quot;&gt;MongoDB&lt;/font&gt;" style="shape=cylinder3;whiteSpace=wrap;html=1;boundedLbl=1;backgroundOutline=1;size=15;rounded=1;sketch=1;jiggle=2;curveFitting=1;strokeColor=default;align=center;verticalAlign=middle;fontFamily=Comic Sans MS;fontSize=12;fontColor=default;fontStyle=1;fillColor=default;" parent="1" vertex="1">
          <mxGeometry x="2200" y="-30" width="230" height="300" as="geometry" />
        </mxCell>
        <mxCell id="qIcLyR5SLVoyqpAv3vRJ-45" value="&lt;font style=&quot;font-size: 22px;&quot;&gt;SQL Server&lt;/font&gt;" style="shape=cylinder3;whiteSpace=wrap;html=1;boundedLbl=1;backgroundOutline=1;size=15;rounded=1;sketch=1;jiggle=2;curveFitting=1;strokeColor=default;align=center;verticalAlign=middle;fontFamily=Comic Sans MS;fontSize=12;fontColor=default;fontStyle=1;fillColor=default;" parent="1" vertex="1">
          <mxGeometry x="2200" y="685" width="230" height="300" as="geometry" />
        </mxCell>
        <mxCell id="qIcLyR5SLVoyqpAv3vRJ-46" value="&lt;font style=&quot;color: rgb(255, 0, 0);&quot;&gt;&lt;b&gt;not gonna use mongoDB in the real project for multiple reasons. but I used it here for the sake of system design and learning&lt;/b&gt;&lt;/font&gt;" style="text;strokeColor=none;align=center;fillColor=default;html=1;verticalAlign=middle;whiteSpace=wrap;rounded=0;fontFamily=Architects Daughter;fontSource=https%3A%2F%2Ffonts.googleapis.com%2Fcss%3Ffamily%3DArchitects%2BDaughter;fontSize=11;fontColor=default;labelBackgroundColor=default;" parent="1" vertex="1">
          <mxGeometry x="2180" y="280" width="270" height="30" as="geometry" />
        </mxCell>
        <mxCell id="qIcLyR5SLVoyqpAv3vRJ-47" value="&lt;font style=&quot;font-size: 16px;&quot;&gt;user, auth&lt;/font&gt;" style="text;strokeColor=none;align=left;fillColor=none;html=1;verticalAlign=middle;whiteSpace=wrap;rounded=0;fontFamily=Architects Daughter;fontSource=https%3A%2F%2Ffonts.googleapis.com%2Fcss%3Ffamily%3DArchitects%2BDaughter;fontSize=11;fontColor=default;labelBackgroundColor=default;" parent="1" vertex="1">
          <mxGeometry x="2460" y="695" width="180" height="280" as="geometry" />
        </mxCell>
        <mxCell id="qIcLyR5SLVoyqpAv3vRJ-48" value="&lt;font style=&quot;font-size: 16px;&quot;&gt;product {&lt;br&gt;discount {},&lt;/font&gt;&lt;div&gt;&lt;font style=&quot;font-size: 16px;&quot;&gt;images: [{}]&lt;/font&gt;&lt;/div&gt;&lt;div&gt;&lt;div&gt;&lt;font style=&quot;font-size: 16px;&quot;&gt;}&lt;/font&gt;&lt;/div&gt;&lt;/div&gt;&lt;div&gt;&lt;font style=&quot;font-size: 16px;&quot;&gt;&lt;br&gt;&lt;/font&gt;&lt;/div&gt;&lt;div&gt;&lt;font style=&quot;font-size: 16px;&quot;&gt;cart {&lt;/font&gt;&lt;/div&gt;&lt;div&gt;&lt;font style=&quot;font-size: 16px;&quot;&gt;cart_items: [{}],&lt;/font&gt;&lt;/div&gt;&lt;div&gt;&lt;font style=&quot;font-size: 16px;&quot;&gt;}&lt;/font&gt;&lt;/div&gt;&lt;div&gt;&lt;font style=&quot;font-size: 16px;&quot;&gt;order {&lt;/font&gt;&lt;/div&gt;&lt;div&gt;&lt;font style=&quot;font-size: 16px;&quot;&gt;order_items: [{}],&lt;/font&gt;&lt;/div&gt;&lt;div&gt;&lt;span style=&quot;font-size: 16px;&quot;&gt;invoice&lt;/span&gt;&lt;/div&gt;&lt;div&gt;&lt;font style=&quot;font-size: 16px;&quot;&gt;}&lt;/font&gt;&lt;/div&gt;&lt;div&gt;&lt;font style=&quot;font-size: 16px;&quot;&gt;&lt;br&gt;&lt;/font&gt;&lt;/div&gt;&lt;div&gt;&lt;font style=&quot;font-size: 16px;&quot;&gt;return_request {&lt;/font&gt;&lt;/div&gt;&lt;div&gt;&lt;font style=&quot;font-size: 16px;&quot;&gt;return_items: [{}]&lt;/font&gt;&lt;/div&gt;&lt;div&gt;&lt;font style=&quot;font-size: 16px;&quot;&gt;}&lt;/font&gt;&lt;/div&gt;" style="text;strokeColor=none;align=left;fillColor=none;html=1;verticalAlign=middle;whiteSpace=wrap;rounded=0;fontFamily=Architects Daughter;fontSource=https%3A%2F%2Ffonts.googleapis.com%2Fcss%3Ffamily%3DArchitects%2BDaughter;fontSize=11;fontColor=default;labelBackgroundColor=default;" parent="1" vertex="1">
          <mxGeometry x="2460" y="-20" width="210" height="280" as="geometry" />
        </mxCell>
        <mxCell id="qIcLyR5SLVoyqpAv3vRJ-49" style="edgeStyle=none;shape=connector;rounded=0;sketch=1;hachureGap=4;jiggle=2;curveFitting=1;orthogonalLoop=1;jettySize=auto;html=1;entryX=0;entryY=0.5;entryDx=0;entryDy=0;entryPerimeter=0;strokeColor=default;align=center;verticalAlign=middle;fontFamily=Architects Daughter;fontSource=https%3A%2F%2Ffonts.googleapis.com%2Fcss%3Ffamily%3DArchitects%2BDaughter;fontSize=11;fontColor=default;labelBackgroundColor=default;startArrow=classic;startFill=1;endArrow=classic;exitX=1;exitY=0.5;exitDx=0;exitDy=0;" parent="1" source="qIcLyR5SLVoyqpAv3vRJ-29" target="qIcLyR5SLVoyqpAv3vRJ-45" edge="1">
          <mxGeometry relative="1" as="geometry" />
        </mxCell>
        <mxCell id="qIcLyR5SLVoyqpAv3vRJ-50" style="edgeStyle=none;shape=connector;rounded=0;sketch=1;hachureGap=4;jiggle=2;curveFitting=1;orthogonalLoop=1;jettySize=auto;html=1;entryX=0;entryY=0.5;entryDx=0;entryDy=0;entryPerimeter=0;strokeColor=default;align=center;verticalAlign=middle;fontFamily=Architects Daughter;fontSource=https%3A%2F%2Ffonts.googleapis.com%2Fcss%3Ffamily%3DArchitects%2BDaughter;fontSize=11;fontColor=default;labelBackgroundColor=default;startArrow=classic;startFill=1;endArrow=classic;" parent="1" target="qIcLyR5SLVoyqpAv3vRJ-42" edge="1">
          <mxGeometry relative="1" as="geometry">
            <mxPoint x="1800" y="370" as="sourcePoint" />
          </mxGeometry>
        </mxCell>
        <mxCell id="qRD__mXqtZjeVcOeW_DR-1" value="" style="image;sketch=0;aspect=fixed;html=1;points=[];align=center;fontSize=12;image=img/lib/mscae/Cache_Redis_Product.svg;hachureGap=4;jiggle=2;curveFitting=1;fontFamily=Architects Daughter;fontSource=https%3A%2F%2Ffonts.googleapis.com%2Fcss%3Ffamily%3DArchitects%2BDaughter;" vertex="1" parent="1">
          <mxGeometry x="1900" y="-300" width="120" height="100.8" as="geometry" />
        </mxCell>
        <mxCell id="qRD__mXqtZjeVcOeW_DR-8" value="&lt;span style=&quot;font-size: 16px;&quot;&gt;LRU&lt;/span&gt;" style="text;strokeColor=none;align=left;fillColor=none;html=1;verticalAlign=middle;whiteSpace=wrap;rounded=0;fontFamily=Helvetica;fontSize=11;fontColor=default;labelBackgroundColor=default;fontStyle=1" vertex="1" parent="1">
          <mxGeometry x="1940" y="-340" width="40" height="30" as="geometry" />
        </mxCell>
      </root>
    </mxGraphModel>
  </diagram>
</mxfile>
